<svg xmlns="http://www.w3.org/2000/svg" xmlns:xlink="http://www.w3.org/1999/xlink" xmlns:lucid="lucid" width="960" height="430"><g transform="translate(-340 -60)" lucid:page-tab-id="0_0"><path d="M620 146c0-3.3 2.7-6 6-6h408c3.3 0 6 2.7 6 6v318c0 3.3-2.7 6-6 6H626c-3.3 0-6-2.7-6-6z" fill="#fff9e6"/><path d="M636.58 140h9.06m6.05 0h9.06m6.04 0h9.07m6.04 0H691m6.04 0h9.07m6.03 0h9.07m6.04 0h9.07m6.06 0h9.06m6.05 0h9.06m6.05 0h9.06m6.05 0h9.06m6.04 0h9.07m6.04 0H827m6.04 0h9.07m6.03 0h9.07m6.04 0h9.07m6.06 0h9.06m6.05 0h9.06m6.05 0h9.06m6.05 0h9.06m6.04 0h9.07m6.04 0H963m6.04 0h9.07m6.03 0h9.07m6.04 0h9.07m6.06 0h9.06m6.05 0h4.53l3.03.82 2.15 2.15.82 3.03v4.54m0 6.06v9.1m0 6.04v9.1m0 6.05v9.07m0 6.06v9.08m0 6.07v9.1m0 6.04v9.1m0 6.06v9.08m0 6.06v9.1m0 6.04v9.1m0 6.05v9.07m0 6.06v9.08m0 6.07v9.1m0 6.04v9.1m0 6.06v9.08m0 6.06v9.1m0 6.04v9.1m0 6.05v9.07m0 6.06v9.08m0 6.07v9.1m0 6.04v9.1m0 6.06V464l-.82 3.03-2.15 2.15-3.03.82h-4.53m-6.05 0h-9.06m-6.05 0h-9.06m-6.04 0h-9.07m-6.04 0H969m-6.04 0h-9.07m-6.03 0h-9.07m-6.04 0h-9.07m-6.06 0h-9.06m-6.05 0h-9.06m-6.05 0h-9.06m-6.05 0h-9.06m-6.04 0h-9.07m-6.04 0H833m-6.04 0h-9.07m-6.03 0h-9.07m-6.04 0h-9.07m-6.06 0h-9.06m-6.05 0h-9.06m-6.05 0h-9.06m-6.05 0h-9.06m-6.04 0h-9.07m-6.04 0H697m-6.04 0h-9.07m-6.03 0h-9.07m-6.04 0h-9.07m-6.06 0h-9.06m-6.05 0H626l-3.03-.82-2.15-2.15L620 464v-4.54m0-6.06v-9.1m0-6.04v-9.1m0-6.05v-9.07m0-6.06v-9.08m0-6.07v-9.1m0-6.04v-9.1m0-6.06v-9.08m0-6.06v-9.1m0-6.04v-9.1m0-6.05v-9.07m0-6.06v-9.08m0-6.07v-9.1m0-6.04v-9.1m0-6.06v-9.08m0-6.06v-9.1m0-6.04v-9.1m0-6.05v-9.07m0-6.06v-9.08m0-6.07v-9.1m0-6.04v-9.1m0-6.06V146l.82-3.03 2.15-2.15L626 140h4.53" stroke="#5e5e5e" stroke-width="3" fill="none"/><path d="M502.5 300H574c3.3 0 6-2.7 6-6v-68c0-3.3 2.7-6 6-6h54" stroke="#5e5e5e" stroke-width="2" fill="none"/><path d="M502.53 301h-1.03v-2h1.03z" fill="#5e5e5e"/><path d="M655.26 220L641 224.64v-9.28z" stroke="#5e5e5e" stroke-width="2" fill="#5e5e5e"/><path d="M360 226c0-3.3 2.7-6 6-6h108c3.3 0 6 2.7 6 6v108c0 3.3-2.7 6-6 6H366c-3.3 0-6-2.7-6-6z" stroke="#5e5e5e" stroke-width="3" fill="#fff9e6"/><use xlink:href="#a" transform="matrix(1,0,0,1,365,225) translate(34.660493827160494 59.02777777777778)"/><path d="M380 246c0-3.3 2.7-6 6-6h108c3.3 0 6 2.7 6 6v108c0 3.3-2.7 6-6 6H386c-3.3 0-6-2.7-6-6z" stroke="#5e5e5e" stroke-width="3" fill="#fff9e6"/><use xlink:href="#a" transform="matrix(1,0,0,1,385,245) translate(34.660493827160494 59.02777777777778)"/><path d="M780 268c0 6.63-26.86 12-60 12s-60-5.37-60-12v-96c0-6.63 26.86-12 60-12s60 5.37 60 12z" stroke="#5e5e5e" stroke-width="3" fill="#ffdf71"/><path d="M780 172c0 6.63-26.86 12-60 12s-60-5.37-60-12" stroke="#5e5e5e" stroke-width="3" fill="none"/><use xlink:href="#b" transform="matrix(1,0,0,1,665,189) translate(3.6450617283950706 47.38194444444444)"/><path d="M920 166c0-3.3 2.7-6 6-6h58c3.3 0 6 2.7 6 6v108c0 3.3-2.7 6-6 6h-58c-3.3 0-6-2.7-6-6z" stroke="#5e5e5e" stroke-width="3" fill="#ffdf71"/><use xlink:href="#c" transform="matrix(1,0,0,1,925,165) translate(8.84876543209877 50.25694444444444)"/><use xlink:href="#d" transform="matrix(1,0,0,1,925,165) translate(17.46913580246914 68.92361111111111)"/><path d="M780 428c0 6.63-26.86 12-60 12s-60-5.37-60-12v-96c0-6.63 26.86-12 60-12s60 5.37 60 12z" stroke="#5e5e5e" stroke-width="3" fill="#ffdf71"/><path d="M780 332c0 6.63-26.86 12-60 12s-60-5.37-60-12" stroke="#5e5e5e" stroke-width="3" fill="none"/><use xlink:href="#e" transform="matrix(1,0,0,1,665,349) translate(20.92901234567902 47.38194444444444)"/><use xlink:href="#f" transform="matrix(1,0,0,1,665,349) translate(56.27469135802469 47.38194444444444)"/><path d="M502.5 300H574c3.3 0 6 2.7 6 6v68c0 3.3 2.7 6 6 6h54" stroke="#5e5e5e" stroke-width="2" fill="none"/><path d="M502.53 301h-1.03v-2h1.03z" fill="#5e5e5e"/><path d="M655.26 380L641 384.64v-9.28z" stroke="#5e5e5e" stroke-width="2" fill="#5e5e5e"/><path d="M400 266c0-3.3 2.7-6 6-6h108c3.3 0 6 2.7 6 6v108c0 3.3-2.7 6-6 6H406c-3.3 0-6-2.7-6-6z" stroke="#5e5e5e" stroke-width="3" fill="#fff9e6"/><use xlink:href="#g" transform="matrix(1,0,0,1,405,265) translate(21.527777777777786 46.93749999999999)"/><use xlink:href="#h" transform="matrix(1,0,0,1,405,265) translate(26.1388888888889 70.93749999999999)"/><path d="M920 326c0-3.3 2.7-6 6-6h58c3.3 0 6 2.7 6 6v108c0 3.3-2.7 6-6 6h-58c-3.3 0-6-2.7-6-6z" stroke="#5e5e5e" stroke-width="3" fill="#ffdf71"/><use xlink:href="#i" transform="matrix(1,0,0,1,925,325) translate(1.1141975308642031 50.25694444444444)"/><use xlink:href="#j" transform="matrix(1,0,0,1,925,325) translate(22.24382716049383 68.92361111111111)"/><path d="M710 86c0-3.3 2.7-6 6-6h228c3.3 0 6 2.7 6 6v48c0 3.3-2.7 6-6 6H716c-3.3 0-6-2.7-6-6z" stroke="#000" stroke-opacity="0" stroke-width="3" fill="#fff" fill-opacity="0"/><use xlink:href="#k" transform="matrix(1,0,0,1,715,85) translate(62.87962962962963 29.36111111111111)"/><path d="M782.5 220H900" stroke="#5e5e5e" stroke-width="2" fill="none"/><path d="M782.53 221h-1.03v-2h1.03z" fill="#5e5e5e"/><path d="M915.26 220L901 224.64v-9.28z" stroke="#5e5e5e" stroke-width="2" fill="#5e5e5e"/><path d="M782.5 380H900" stroke="#5e5e5e" stroke-width="2" fill="none"/><path d="M782.53 381h-1.03v-2h1.03z" fill="#5e5e5e"/><path d="M915.26 380L901 384.64v-9.28z" stroke="#5e5e5e" stroke-width="2" fill="#5e5e5e"/><path d="M721 317.5c0 .55-.45 1-1 1s-1-.45-1-1 .45-1 1-1 1 .45 1 1zm0-4.37c0 .55-.45 1-1 1s-1-.45-1-1c0-.56.45-1 1-1s1 .44 1 1zm0-4.38c0 .55-.45 1-1 1s-1-.45-1-1 .45-1 1-1 1 .45 1 1zm0-4.37c0 .55-.45 1-1 1s-1-.45-1-1c0-.56.45-1 1-1s1 .44 1 1z" fill="#5e5e5e"/><path d="M721 318.54l-1-.04-1 .03v-1.06h2z" fill="#5e5e5e"/><path d="M720 284.74l4.64 14.26h-9.28z" stroke="#5e5e5e" stroke-width="2" fill="#5e5e5e"/><path d="M1160 251c0-3.3 2.7-6 6-6h108c3.3 0 6 2.7 6 6v108c0 3.3-2.7 6-6 6h-108c-3.3 0-6-2.7-6-6z" stroke="#5e5e5e" stroke-width="3" fill="#fff9e6"/><use xlink:href="#l" transform="matrix(1,0,0,1,1165,250) translate(33.94444444444446 60.68749999999999)"/><path d="M992.5 220h76.5c3.3 0 6 2.7 6 6v73c0 3.3 2.7 6 6 6h59" stroke="#5e5e5e" stroke-width="2" fill="none"/><path d="M992.53 221h-1.03v-2h1.03z" fill="#5e5e5e"/><path d="M1155.26 305l-14.26 4.64v-9.28z" stroke="#5e5e5e" stroke-width="2" fill="#5e5e5e"/><path d="M992.5 380h76.5c3.3 0 6-2.7 6-6v-63c0-3.3 2.7-6 6-6h59" stroke="#5e5e5e" stroke-width="2" fill="none"/><path d="M992.53 381h-1.03v-2h1.03z" fill="#5e5e5e"/><path d="M1155.26 305l-14.26 4.64v-9.28z" stroke="#5e5e5e" stroke-width="2" fill="#5e5e5e"/><defs><path fill="#333" d="M127-220V0H93v-220H8v-28h204v28h-85" id="m"/><path fill="#333" d="M100-194c63 0 86 42 84 106H49c0 40 14 67 53 68 26 1 43-12 49-29l28 8c-11 28-37 45-77 45C44 4 14-33 15-96c1-61 26-98 85-98zm52 81c6-60-76-77-97-28-3 7-6 17-6 28h103" id="n"/><path fill="#333" d="M141 0L90-78 38 0H4l68-98-65-92h35l48 74 47-74h35l-64 92 68 98h-35" id="o"/><path fill="#333" d="M59-47c-2 24 18 29 38 22v24C64 9 27 4 27-40v-127H5v-23h24l9-43h21v43h35v23H59v120" id="p"/><g id="a"><use transform="matrix(0.06172839506172839,0,0,0.06172839506172839,0,0)" xlink:href="#m"/><use transform="matrix(0.06172839506172839,0,0,0.06172839506172839,11.049382716049381,0)" xlink:href="#n"/><use transform="matrix(0.06172839506172839,0,0,0.06172839506172839,23.39506172839506,0)" xlink:href="#o"/><use transform="matrix(0.06172839506172839,0,0,0.06172839506172839,34.50617283950617,0)" xlink:href="#p"/></g><path fill="#333" d="M240 0l2-218c-23 76-54 145-80 218h-23L58-218 59 0H30v-248h44l77 211c21-75 51-140 76-211h43V0h-30" id="q"/><path fill="#333" d="M141-36C126-15 110 5 73 4 37 3 15-17 15-53c-1-64 63-63 125-63 3-35-9-54-41-54-24 1-41 7-42 31l-33-3c5-37 33-52 76-52 45 0 72 20 72 64v82c-1 20 7 32 28 27v20c-31 9-61-2-59-35zM48-53c0 20 12 33 32 33 41-3 63-29 60-74-43 2-92-5-92 41" id="r"/><path fill="#333" d="M135-143c-3-34-86-38-87 0 15 53 115 12 119 90S17 21 10-45l28-5c4 36 97 45 98 0-10-56-113-15-118-90-4-57 82-63 122-42 12 7 21 19 24 35" id="s"/><path fill="#333" d="M84 4C-5 8 30-112 23-190h32v120c0 31 7 50 39 49 72-2 45-101 50-169h31l1 190h-30c-1-10 1-25-2-33-11 22-28 36-60 37" id="t"/><path fill="#333" d="M114-163C36-179 61-72 57 0H25l-1-190h30c1 12-1 29 2 39 6-27 23-49 58-41v29" id="u"/><path fill="#333" d="M210-169c-67 3-38 105-44 169h-31v-121c0-29-5-50-35-48C34-165 62-65 56 0H25l-1-190h30c1 10-1 24 2 32 10-44 99-50 107 0 11-21 27-35 58-36 85-2 47 119 55 194h-31v-121c0-29-5-49-35-48" id="v"/><path fill="#333" d="M117-194c89-4 53 116 60 194h-32v-121c0-31-8-49-39-48C34-167 62-67 57 0H25l-1-190h30c1 10-1 24 2 32 11-22 29-35 61-36" id="w"/><g id="b"><use transform="matrix(0.04320987654320987,0,0,0.04320987654320987,0,0)" xlink:href="#q"/><use transform="matrix(0.04320987654320987,0,0,0.04320987654320987,12.91975308641975,0)" xlink:href="#n"/><use transform="matrix(0.04320987654320987,0,0,0.04320987654320987,21.56172839506172,0)" xlink:href="#r"/><use transform="matrix(0.04320987654320987,0,0,0.04320987654320987,30.2037037037037,0)" xlink:href="#s"/><use transform="matrix(0.04320987654320987,0,0,0.04320987654320987,37.981481481481474,0)" xlink:href="#t"/><use transform="matrix(0.04320987654320987,0,0,0.04320987654320987,46.62345679012345,0)" xlink:href="#u"/><use transform="matrix(0.04320987654320987,0,0,0.04320987654320987,51.76543209876542,0)" xlink:href="#n"/><use transform="matrix(0.04320987654320987,0,0,0.04320987654320987,60.4074074074074,0)" xlink:href="#v"/><use transform="matrix(0.04320987654320987,0,0,0.04320987654320987,73.32716049382715,0)" xlink:href="#n"/><use transform="matrix(0.04320987654320987,0,0,0.04320987654320987,81.96913580246913,0)" xlink:href="#w"/><use transform="matrix(0.04320987654320987,0,0,0.04320987654320987,90.61111111111109,0)" xlink:href="#p"/><use transform="matrix(0.04320987654320987,0,0,0.04320987654320987,94.93209876543207,0)" xlink:href="#s"/></g><path fill="#333" d="M140-251c81 0 123 46 123 126C263-53 228-8 163 1c7 30 30 48 69 40v23c-55 16-95-15-103-61C56-3 17-48 17-125c0-80 42-126 123-126zm0 227c63 0 89-41 89-101s-29-99-89-99c-61 0-89 39-89 99S79-25 140-24" id="x"/><path fill="#333" d="M179-190L93 31C79 59 56 82 12 73V49c39 6 53-20 64-50L1-190h34L92-34l54-156h33" id="y"/><g id="c"><use transform="matrix(0.04320987654320987,0,0,0.04320987654320987,0,0)" xlink:href="#x"/><use transform="matrix(0.04320987654320987,0,0,0.04320987654320987,12.098765432098762,0)" xlink:href="#t"/><use transform="matrix(0.04320987654320987,0,0,0.04320987654320987,20.740740740740733,0)" xlink:href="#n"/><use transform="matrix(0.04320987654320987,0,0,0.04320987654320987,29.382716049382708,0)" xlink:href="#u"/><use transform="matrix(0.04320987654320987,0,0,0.04320987654320987,34.52469135802468,0)" xlink:href="#y"/></g><path fill="#333" d="M205 0l-28-72H64L36 0H1l101-248h38L239 0h-34zm-38-99l-47-123c-12 45-31 82-46 123h93" id="z"/><path fill="#333" d="M30-248c87 1 191-15 191 75 0 78-77 80-158 76V0H30v-248zm33 125c57 0 124 11 124-50 0-59-68-47-124-48v98" id="A"/><path fill="#333" d="M33 0v-248h34V0H33" id="B"/><g id="d"><use transform="matrix(0.04320987654320987,0,0,0.04320987654320987,0,0)" xlink:href="#z"/><use transform="matrix(0.04320987654320987,0,0,0.04320987654320987,10.370370370370368,0)" xlink:href="#A"/><use transform="matrix(0.04320987654320987,0,0,0.04320987654320987,20.740740740740737,0)" xlink:href="#B"/></g><path fill="#333" d="M233-177c-1 41-23 64-60 70L243 0h-38l-65-103H63V0H30v-248c88 3 205-21 203 71zM63-129c60-2 137 13 137-47 0-61-80-42-137-45v92" id="C"/><path fill="#333" d="M24-231v-30h32v30H24zM24 0v-190h32V0H24" id="D"/><path fill="#333" d="M96-169c-40 0-48 33-48 73s9 75 48 75c24 0 41-14 43-38l32 2c-6 37-31 61-74 61-59 0-76-41-82-99-10-93 101-131 147-64 4 7 5 14 7 22l-32 3c-4-21-16-35-41-35" id="E"/><path fill="#333" d="M106-169C34-169 62-67 57 0H25v-261h32l-1 103c12-21 28-36 61-36 89 0 53 116 60 194h-32v-121c2-32-8-49-39-48" id="F"/><g id="e"><use transform="matrix(0.04320987654320987,0,0,0.04320987654320987,0,0)" xlink:href="#C"/><use transform="matrix(0.04320987654320987,0,0,0.04320987654320987,11.191358024691356,0)" xlink:href="#D"/><use transform="matrix(0.04320987654320987,0,0,0.04320987654320987,14.604938271604935,0)" xlink:href="#E"/><use transform="matrix(0.04320987654320987,0,0,0.04320987654320987,22.38271604938271,0)" xlink:href="#F"/></g><path fill="#333" d="M30-248c118-7 216 8 213 122C240-48 200 0 122 0H30v-248zM63-27c89 8 146-16 146-99s-60-101-146-95v194" id="G"/><g id="f"><use transform="matrix(0.04320987654320987,0,0,0.04320987654320987,0,0)" xlink:href="#G"/><use transform="matrix(0.04320987654320987,0,0,0.04320987654320987,11.191358024691356,0)" xlink:href="#r"/><use transform="matrix(0.04320987654320987,0,0,0.04320987654320987,19.83333333333333,0)" xlink:href="#p"/><use transform="matrix(0.04320987654320987,0,0,0.04320987654320987,24.154320987654316,0)" xlink:href="#r"/></g><path fill="#333" d="M266 0h-40l-56-210L115 0H75L2-248h35L96-30l15-64 43-154h32l59 218 59-218h35" id="H"/><path fill="#333" d="M177-190C167-65 218 103 67 71c-23-6-38-20-44-43l32-5c15 47 100 32 89-28v-30C133-14 115 1 83 1 29 1 15-40 15-95c0-56 16-97 71-98 29-1 48 16 59 35 1-10 0-23 2-32h30zM94-22c36 0 50-32 50-73 0-42-14-75-50-75-39 0-46 34-46 75s6 73 46 73" id="I"/><path fill="#333" d="M24 0v-261h32V0H24" id="J"/><g id="g"><use transform="matrix(0.05555555555555554,0,0,0.05555555555555554,0,0)" xlink:href="#H"/><use transform="matrix(0.05555555555555554,0,0,0.05555555555555554,18.111111111111107,0)" xlink:href="#r"/><use transform="matrix(0.05555555555555554,0,0,0.05555555555555554,29.222222222222214,0)" xlink:href="#I"/><use transform="matrix(0.05555555555555554,0,0,0.05555555555555554,40.33333333333332,0)" xlink:href="#I"/><use transform="matrix(0.05555555555555554,0,0,0.05555555555555554,51.44444444444443,0)" xlink:href="#J"/><use transform="matrix(0.05555555555555554,0,0,0.05555555555555554,55.833333333333314,0)" xlink:href="#n"/></g><path fill="#333" d="M190 0L58-211 59 0H30v-248h39L202-35l-2-213h31V0h-41" id="K"/><path fill="#333" d="M100-194c62-1 85 37 85 99 1 63-27 99-86 99S16-35 15-95c0-66 28-99 85-99zM99-20c44 1 53-31 53-75 0-43-8-75-51-75s-53 32-53 75 10 74 51 75" id="L"/><path fill="#333" d="M85-194c31 0 48 13 60 33l-1-100h32l1 261h-30c-2-10 0-23-3-31C134-8 116 4 85 4 32 4 16-35 15-94c0-66 23-100 70-100zm9 24c-40 0-46 34-46 75 0 40 6 74 45 74 42 0 51-32 51-76 0-42-9-74-50-73" id="M"/><g id="h"><use transform="matrix(0.05555555555555554,0,0,0.05555555555555554,0,0)" xlink:href="#K"/><use transform="matrix(0.05555555555555554,0,0,0.05555555555555554,14.388888888888884,0)" xlink:href="#L"/><use transform="matrix(0.05555555555555554,0,0,0.05555555555555554,25.499999999999993,0)" xlink:href="#M"/><use transform="matrix(0.05555555555555554,0,0,0.05555555555555554,36.6111111111111,0)" xlink:href="#n"/><use transform="matrix(0.05555555555555554,0,0,0.05555555555555554,47.72222222222221,0)" xlink:href="#s"/></g><path fill="#333" d="M30 0v-248h187v28H63v79h144v27H63v87h162V0H30" id="N"/><path fill="#333" d="M115-194c55 1 70 41 70 98S169 2 115 4C84 4 66-9 55-30l1 105H24l-1-265h31l2 30c10-21 28-34 59-34zm-8 174c40 0 45-34 45-75s-6-73-45-74c-42 0-51 32-51 76 0 43 10 73 51 73" id="O"/><g id="i"><use transform="matrix(0.04320987654320987,0,0,0.04320987654320987,0,0)" xlink:href="#N"/><use transform="matrix(0.04320987654320987,0,0,0.04320987654320987,10.370370370370368,0)" xlink:href="#o"/><use transform="matrix(0.04320987654320987,0,0,0.04320987654320987,18.148148148148145,0)" xlink:href="#O"/><use transform="matrix(0.04320987654320987,0,0,0.04320987654320987,26.790123456790116,0)" xlink:href="#J"/><use transform="matrix(0.04320987654320987,0,0,0.04320987654320987,30.2037037037037,0)" xlink:href="#L"/><use transform="matrix(0.04320987654320987,0,0,0.04320987654320987,38.84567901234567,0)" xlink:href="#u"/><use transform="matrix(0.04320987654320987,0,0,0.04320987654320987,43.987654320987644,0)" xlink:href="#n"/><use transform="matrix(0.04320987654320987,0,0,0.04320987654320987,52.62962962962962,0)" xlink:href="#u"/></g><path fill="#333" d="M232-93c-1 65-40 97-104 97C67 4 28-28 28-90v-158h33c8 89-33 224 67 224 102 0 64-133 71-224h33v155" id="P"/><g id="j"><use transform="matrix(0.04320987654320987,0,0,0.04320987654320987,0,0)" xlink:href="#P"/><use transform="matrix(0.04320987654320987,0,0,0.04320987654320987,11.191358024691356,0)" xlink:href="#B"/></g><path fill="#333" d="M160-131c35 5 61 23 61 61C221 17 115-2 30 0v-248c76 3 177-17 177 60 0 33-19 50-47 57zm-97-11c50-1 110 9 110-42 0-47-63-36-110-37v79zm0 115c55-2 124 14 124-45 0-56-70-42-124-44v89" id="Q"/><path fill="#333" d="M108 0H70L1-190h34L89-25l56-165h34" id="R"/><g id="k"><use transform="matrix(0.08024691358024691,0,0,0.08024691358024691,0,0)" xlink:href="#Q"/><use transform="matrix(0.08024691358024691,0,0,0.08024691358024691,19.25925925925926,0)" xlink:href="#n"/><use transform="matrix(0.08024691358024691,0,0,0.08024691358024691,35.308641975308646,0)" xlink:href="#n"/><use transform="matrix(0.08024691358024691,0,0,0.08024691358024691,51.358024691358025,0)" xlink:href="#F"/><use transform="matrix(0.08024691358024691,0,0,0.08024691358024691,67.4074074074074,0)" xlink:href="#D"/><use transform="matrix(0.08024691358024691,0,0,0.08024691358024691,73.74691358024691,0)" xlink:href="#R"/><use transform="matrix(0.08024691358024691,0,0,0.08024691358024691,88.19135802469135,0)" xlink:href="#n"/></g><g id="l"><use transform="matrix(0.05555555555555554,0,0,0.05555555555555554,0,0)" xlink:href="#P"/><use transform="matrix(0.05555555555555554,0,0,0.05555555555555554,14.388888888888884,0)" xlink:href="#s"/><use transform="matrix(0.05555555555555554,0,0,0.05555555555555554,24.38888888888888,0)" xlink:href="#n"/><use transform="matrix(0.05555555555555554,0,0,0.05555555555555554,35.499999999999986,0)" xlink:href="#u"/></g></defs></g></svg>